<mxfile host="app.diagrams.net" modified="2023-05-16T22:35:41.542Z" agent="Mozilla/5.0 (Windows NT 10.0; Win64; x64) AppleWebKit/537.36 (KHTML, like Gecko) Chrome/113.0.0.0 Safari/537.36" etag="a42pEdzykT-GCdlY8cpE" version="21.3.2" type="device">
  <diagram name="Страница 1" id="vaVnpeOQBWc_vJTZJ6nx">
    <mxGraphModel dx="2580" dy="1050" grid="1" gridSize="10" guides="1" tooltips="1" connect="1" arrows="1" fold="1" page="1" pageScale="1" pageWidth="827" pageHeight="1169" math="0" shadow="0">
      <root>
        <mxCell id="0" />
        <mxCell id="1" parent="0" />
        <mxCell id="XW4laHf70i-aS3ndhYvc-1" value="Z1" style="ellipse;whiteSpace=wrap;html=1;aspect=fixed;" vertex="1" parent="1">
          <mxGeometry x="104" y="220" width="30" height="30" as="geometry" />
        </mxCell>
        <mxCell id="XW4laHf70i-aS3ndhYvc-2" value="Z2" style="ellipse;whiteSpace=wrap;html=1;aspect=fixed;" vertex="1" parent="1">
          <mxGeometry x="194" y="220" width="30" height="30" as="geometry" />
        </mxCell>
        <mxCell id="XW4laHf70i-aS3ndhYvc-3" value="Z3" style="ellipse;whiteSpace=wrap;html=1;aspect=fixed;" vertex="1" parent="1">
          <mxGeometry x="264" y="190" width="30" height="30" as="geometry" />
        </mxCell>
        <mxCell id="XW4laHf70i-aS3ndhYvc-4" value="Z6" style="ellipse;whiteSpace=wrap;html=1;aspect=fixed;" vertex="1" parent="1">
          <mxGeometry x="344" y="280" width="30" height="30" as="geometry" />
        </mxCell>
        <mxCell id="XW4laHf70i-aS3ndhYvc-5" value="Z11" style="ellipse;whiteSpace=wrap;html=1;aspect=fixed;" vertex="1" parent="1">
          <mxGeometry x="504" y="310" width="30" height="30" as="geometry" />
        </mxCell>
        <mxCell id="XW4laHf70i-aS3ndhYvc-6" value="Z10" style="ellipse;whiteSpace=wrap;html=1;aspect=fixed;" vertex="1" parent="1">
          <mxGeometry x="514" y="240" width="30" height="30" as="geometry" />
        </mxCell>
        <mxCell id="XW4laHf70i-aS3ndhYvc-7" value="Z9" style="ellipse;whiteSpace=wrap;html=1;aspect=fixed;" vertex="1" parent="1">
          <mxGeometry x="404" y="370" width="30" height="30" as="geometry" />
        </mxCell>
        <mxCell id="XW4laHf70i-aS3ndhYvc-8" value="Z8" style="ellipse;whiteSpace=wrap;html=1;aspect=fixed;" vertex="1" parent="1">
          <mxGeometry x="404" y="240" width="30" height="30" as="geometry" />
        </mxCell>
        <mxCell id="XW4laHf70i-aS3ndhYvc-9" value="Z7" style="ellipse;whiteSpace=wrap;html=1;aspect=fixed;" vertex="1" parent="1">
          <mxGeometry x="364" y="110" width="30" height="30" as="geometry" />
        </mxCell>
        <mxCell id="XW4laHf70i-aS3ndhYvc-10" value="Z15" style="ellipse;whiteSpace=wrap;html=1;aspect=fixed;" vertex="1" parent="1">
          <mxGeometry x="304" y="540" width="30" height="30" as="geometry" />
        </mxCell>
        <mxCell id="XW4laHf70i-aS3ndhYvc-11" value="Z5" style="ellipse;whiteSpace=wrap;html=1;aspect=fixed;" vertex="1" parent="1">
          <mxGeometry x="264" y="320" width="30" height="30" as="geometry" />
        </mxCell>
        <mxCell id="XW4laHf70i-aS3ndhYvc-12" value="Z4" style="ellipse;whiteSpace=wrap;html=1;aspect=fixed;" vertex="1" parent="1">
          <mxGeometry x="264" y="250" width="30" height="30" as="geometry" />
        </mxCell>
        <mxCell id="XW4laHf70i-aS3ndhYvc-13" value="Z16" style="ellipse;whiteSpace=wrap;html=1;aspect=fixed;" vertex="1" parent="1">
          <mxGeometry x="344" y="610" width="30" height="30" as="geometry" />
        </mxCell>
        <mxCell id="XW4laHf70i-aS3ndhYvc-14" value="Z17" style="ellipse;whiteSpace=wrap;html=1;aspect=fixed;" vertex="1" parent="1">
          <mxGeometry x="214" y="610" width="30" height="30" as="geometry" />
        </mxCell>
        <mxCell id="XW4laHf70i-aS3ndhYvc-15" value="Z18" style="ellipse;whiteSpace=wrap;html=1;aspect=fixed;" vertex="1" parent="1">
          <mxGeometry x="384" y="540" width="30" height="30" as="geometry" />
        </mxCell>
        <mxCell id="XW4laHf70i-aS3ndhYvc-16" value="Z12" style="ellipse;whiteSpace=wrap;html=1;aspect=fixed;" vertex="1" parent="1">
          <mxGeometry x="624" y="280" width="30" height="30" as="geometry" />
        </mxCell>
        <mxCell id="XW4laHf70i-aS3ndhYvc-17" value="Z13" style="ellipse;whiteSpace=wrap;html=1;aspect=fixed;" vertex="1" parent="1">
          <mxGeometry x="594" y="360" width="30" height="30" as="geometry" />
        </mxCell>
        <mxCell id="XW4laHf70i-aS3ndhYvc-18" value="Z14" style="ellipse;whiteSpace=wrap;html=1;aspect=fixed;" vertex="1" parent="1">
          <mxGeometry x="694" y="360" width="30" height="30" as="geometry" />
        </mxCell>
        <mxCell id="XW4laHf70i-aS3ndhYvc-19" value="" style="endArrow=classic;html=1;rounded=0;exitX=1;exitY=0.5;exitDx=0;exitDy=0;entryX=0;entryY=0.5;entryDx=0;entryDy=0;" edge="1" parent="1" source="XW4laHf70i-aS3ndhYvc-1" target="XW4laHf70i-aS3ndhYvc-2">
          <mxGeometry width="50" height="50" relative="1" as="geometry">
            <mxPoint x="154" y="180" as="sourcePoint" />
            <mxPoint x="204" y="180" as="targetPoint" />
          </mxGeometry>
        </mxCell>
        <mxCell id="XW4laHf70i-aS3ndhYvc-20" value="" style="endArrow=classic;html=1;rounded=0;exitX=1;exitY=0;exitDx=0;exitDy=0;entryX=0;entryY=0.5;entryDx=0;entryDy=0;" edge="1" parent="1" source="XW4laHf70i-aS3ndhYvc-2" target="XW4laHf70i-aS3ndhYvc-3">
          <mxGeometry width="50" height="50" relative="1" as="geometry">
            <mxPoint x="144" y="245" as="sourcePoint" />
            <mxPoint x="204" y="245" as="targetPoint" />
          </mxGeometry>
        </mxCell>
        <mxCell id="XW4laHf70i-aS3ndhYvc-21" value="" style="endArrow=classic;html=1;rounded=0;exitX=1;exitY=1;exitDx=0;exitDy=0;entryX=0;entryY=0.5;entryDx=0;entryDy=0;" edge="1" parent="1" source="XW4laHf70i-aS3ndhYvc-2" target="XW4laHf70i-aS3ndhYvc-12">
          <mxGeometry width="50" height="50" relative="1" as="geometry">
            <mxPoint x="230" y="234" as="sourcePoint" />
            <mxPoint x="274" y="215" as="targetPoint" />
          </mxGeometry>
        </mxCell>
        <mxCell id="XW4laHf70i-aS3ndhYvc-22" value="" style="endArrow=classic;html=1;rounded=0;exitX=1;exitY=0;exitDx=0;exitDy=0;entryX=0;entryY=0.5;entryDx=0;entryDy=0;" edge="1" parent="1" source="XW4laHf70i-aS3ndhYvc-3" target="XW4laHf70i-aS3ndhYvc-9">
          <mxGeometry width="50" height="50" relative="1" as="geometry">
            <mxPoint x="230" y="234" as="sourcePoint" />
            <mxPoint x="274" y="215" as="targetPoint" />
          </mxGeometry>
        </mxCell>
        <mxCell id="XW4laHf70i-aS3ndhYvc-23" value="" style="endArrow=classic;html=1;rounded=0;exitX=1;exitY=0.5;exitDx=0;exitDy=0;entryX=0;entryY=0.5;entryDx=0;entryDy=0;" edge="1" parent="1" source="XW4laHf70i-aS3ndhYvc-12" target="XW4laHf70i-aS3ndhYvc-4">
          <mxGeometry width="50" height="50" relative="1" as="geometry">
            <mxPoint x="300" y="204" as="sourcePoint" />
            <mxPoint x="374" y="135" as="targetPoint" />
          </mxGeometry>
        </mxCell>
        <mxCell id="XW4laHf70i-aS3ndhYvc-24" value="" style="endArrow=classic;html=1;rounded=0;exitX=1;exitY=0;exitDx=0;exitDy=0;entryX=0;entryY=1;entryDx=0;entryDy=0;" edge="1" parent="1" source="XW4laHf70i-aS3ndhYvc-12" target="XW4laHf70i-aS3ndhYvc-9">
          <mxGeometry width="50" height="50" relative="1" as="geometry">
            <mxPoint x="304" y="275" as="sourcePoint" />
            <mxPoint x="354" y="305" as="targetPoint" />
          </mxGeometry>
        </mxCell>
        <mxCell id="XW4laHf70i-aS3ndhYvc-25" value="" style="endArrow=classic;html=1;rounded=0;exitX=1;exitY=0.5;exitDx=0;exitDy=0;entryX=0;entryY=0.5;entryDx=0;entryDy=0;" edge="1" parent="1" source="XW4laHf70i-aS3ndhYvc-3" target="XW4laHf70i-aS3ndhYvc-8">
          <mxGeometry width="50" height="50" relative="1" as="geometry">
            <mxPoint x="300" y="204" as="sourcePoint" />
            <mxPoint x="374" y="135" as="targetPoint" />
          </mxGeometry>
        </mxCell>
        <mxCell id="XW4laHf70i-aS3ndhYvc-26" value="" style="endArrow=classic;html=1;rounded=0;exitX=1;exitY=0.5;exitDx=0;exitDy=0;entryX=0;entryY=0.5;entryDx=0;entryDy=0;" edge="1" parent="1" source="XW4laHf70i-aS3ndhYvc-8" target="XW4laHf70i-aS3ndhYvc-6">
          <mxGeometry width="50" height="50" relative="1" as="geometry">
            <mxPoint x="304" y="275" as="sourcePoint" />
            <mxPoint x="354" y="305" as="targetPoint" />
          </mxGeometry>
        </mxCell>
        <mxCell id="XW4laHf70i-aS3ndhYvc-27" value="" style="endArrow=classic;html=1;rounded=0;exitX=1;exitY=1;exitDx=0;exitDy=0;entryX=0;entryY=0.5;entryDx=0;entryDy=0;" edge="1" parent="1" source="XW4laHf70i-aS3ndhYvc-8" target="XW4laHf70i-aS3ndhYvc-5">
          <mxGeometry width="50" height="50" relative="1" as="geometry">
            <mxPoint x="444" y="265" as="sourcePoint" />
            <mxPoint x="524" y="265" as="targetPoint" />
          </mxGeometry>
        </mxCell>
        <mxCell id="XW4laHf70i-aS3ndhYvc-28" value="" style="endArrow=classic;html=1;rounded=0;exitX=1;exitY=0.5;exitDx=0;exitDy=0;entryX=0;entryY=0;entryDx=0;entryDy=0;" edge="1" parent="1" source="XW4laHf70i-aS3ndhYvc-9" target="XW4laHf70i-aS3ndhYvc-6">
          <mxGeometry width="50" height="50" relative="1" as="geometry">
            <mxPoint x="300" y="204" as="sourcePoint" />
            <mxPoint x="374" y="135" as="targetPoint" />
          </mxGeometry>
        </mxCell>
        <mxCell id="XW4laHf70i-aS3ndhYvc-29" value="" style="endArrow=classic;html=1;rounded=0;exitX=0.5;exitY=1;exitDx=0;exitDy=0;entryX=0.5;entryY=0;entryDx=0;entryDy=0;" edge="1" parent="1" source="XW4laHf70i-aS3ndhYvc-8" target="XW4laHf70i-aS3ndhYvc-7">
          <mxGeometry width="50" height="50" relative="1" as="geometry">
            <mxPoint x="440" y="276" as="sourcePoint" />
            <mxPoint x="514" y="335" as="targetPoint" />
          </mxGeometry>
        </mxCell>
        <mxCell id="XW4laHf70i-aS3ndhYvc-30" value="" style="endArrow=classic;html=1;rounded=0;exitX=1;exitY=1;exitDx=0;exitDy=0;entryX=0;entryY=1;entryDx=0;entryDy=0;" edge="1" parent="1" source="XW4laHf70i-aS3ndhYvc-12" target="XW4laHf70i-aS3ndhYvc-8">
          <mxGeometry width="50" height="50" relative="1" as="geometry">
            <mxPoint x="304" y="275" as="sourcePoint" />
            <mxPoint x="354" y="305" as="targetPoint" />
          </mxGeometry>
        </mxCell>
        <mxCell id="XW4laHf70i-aS3ndhYvc-31" value="" style="endArrow=classic;html=1;rounded=0;exitX=1;exitY=0.5;exitDx=0;exitDy=0;entryX=0;entryY=1;entryDx=0;entryDy=0;" edge="1" parent="1" source="XW4laHf70i-aS3ndhYvc-11" target="XW4laHf70i-aS3ndhYvc-4">
          <mxGeometry width="50" height="50" relative="1" as="geometry">
            <mxPoint x="307" y="370" as="sourcePoint" />
            <mxPoint x="351" y="389" as="targetPoint" />
          </mxGeometry>
        </mxCell>
        <mxCell id="XW4laHf70i-aS3ndhYvc-32" value="" style="endArrow=classic;html=1;rounded=0;exitX=0.5;exitY=1;exitDx=0;exitDy=0;entryX=0;entryY=0;entryDx=0;entryDy=0;" edge="1" parent="1" source="XW4laHf70i-aS3ndhYvc-4" target="XW4laHf70i-aS3ndhYvc-7">
          <mxGeometry width="50" height="50" relative="1" as="geometry">
            <mxPoint x="304" y="345" as="sourcePoint" />
            <mxPoint x="358" y="316" as="targetPoint" />
          </mxGeometry>
        </mxCell>
        <mxCell id="XW4laHf70i-aS3ndhYvc-33" value="" style="endArrow=classic;html=1;rounded=0;exitX=1;exitY=1;exitDx=0;exitDy=0;entryX=0;entryY=1;entryDx=0;entryDy=0;" edge="1" parent="1" source="XW4laHf70i-aS3ndhYvc-4" target="XW4laHf70i-aS3ndhYvc-5">
          <mxGeometry width="50" height="50" relative="1" as="geometry">
            <mxPoint x="369" y="320" as="sourcePoint" />
            <mxPoint x="418" y="384" as="targetPoint" />
          </mxGeometry>
        </mxCell>
        <mxCell id="XW4laHf70i-aS3ndhYvc-34" value="" style="endArrow=classic;html=1;rounded=0;exitX=1;exitY=0.5;exitDx=0;exitDy=0;entryX=0;entryY=1;entryDx=0;entryDy=0;" edge="1" parent="1" source="XW4laHf70i-aS3ndhYvc-4" target="XW4laHf70i-aS3ndhYvc-6">
          <mxGeometry width="50" height="50" relative="1" as="geometry">
            <mxPoint x="380" y="316" as="sourcePoint" />
            <mxPoint x="518" y="346" as="targetPoint" />
          </mxGeometry>
        </mxCell>
        <mxCell id="XW4laHf70i-aS3ndhYvc-35" value="" style="endArrow=classic;html=1;rounded=0;exitX=1;exitY=1;exitDx=0;exitDy=0;entryX=0;entryY=0.5;entryDx=0;entryDy=0;" edge="1" parent="1" source="XW4laHf70i-aS3ndhYvc-9" target="XW4laHf70i-aS3ndhYvc-7">
          <mxGeometry width="50" height="50" relative="1" as="geometry">
            <mxPoint x="404" y="135" as="sourcePoint" />
            <mxPoint x="528" y="254" as="targetPoint" />
          </mxGeometry>
        </mxCell>
        <mxCell id="XW4laHf70i-aS3ndhYvc-37" value="" style="endArrow=classic;html=1;rounded=0;exitX=0.5;exitY=1;exitDx=0;exitDy=0;entryX=0;entryY=0;entryDx=0;entryDy=0;" edge="1" parent="1" source="XW4laHf70i-aS3ndhYvc-9" target="XW4laHf70i-aS3ndhYvc-5">
          <mxGeometry width="50" height="50" relative="1" as="geometry">
            <mxPoint x="404" y="135" as="sourcePoint" />
            <mxPoint x="528" y="254" as="targetPoint" />
          </mxGeometry>
        </mxCell>
        <mxCell id="XW4laHf70i-aS3ndhYvc-38" value="" style="endArrow=classic;html=1;rounded=0;exitX=1;exitY=0;exitDx=0;exitDy=0;entryX=0.5;entryY=1;entryDx=0;entryDy=0;" edge="1" parent="1" source="XW4laHf70i-aS3ndhYvc-7" target="XW4laHf70i-aS3ndhYvc-5">
          <mxGeometry width="50" height="50" relative="1" as="geometry">
            <mxPoint x="504" y="380" as="sourcePoint" />
            <mxPoint x="553" y="444" as="targetPoint" />
          </mxGeometry>
        </mxCell>
        <mxCell id="XW4laHf70i-aS3ndhYvc-39" value="" style="endArrow=classic;html=1;rounded=0;exitX=0.5;exitY=1;exitDx=0;exitDy=0;entryX=0.5;entryY=0;entryDx=0;entryDy=0;" edge="1" parent="1" source="XW4laHf70i-aS3ndhYvc-6" target="XW4laHf70i-aS3ndhYvc-17">
          <mxGeometry width="50" height="50" relative="1" as="geometry">
            <mxPoint x="505" y="434" as="sourcePoint" />
            <mxPoint x="594" y="400" as="targetPoint" />
          </mxGeometry>
        </mxCell>
        <mxCell id="XW4laHf70i-aS3ndhYvc-40" value="" style="endArrow=classic;html=1;rounded=0;exitX=1;exitY=0.5;exitDx=0;exitDy=0;entryX=0;entryY=0.5;entryDx=0;entryDy=0;" edge="1" parent="1" source="XW4laHf70i-aS3ndhYvc-5" target="XW4laHf70i-aS3ndhYvc-16">
          <mxGeometry width="50" height="50" relative="1" as="geometry">
            <mxPoint x="539" y="280" as="sourcePoint" />
            <mxPoint x="619" y="370" as="targetPoint" />
          </mxGeometry>
        </mxCell>
        <mxCell id="XW4laHf70i-aS3ndhYvc-41" value="" style="endArrow=classic;html=1;rounded=0;exitX=0.5;exitY=1;exitDx=0;exitDy=0;entryX=0;entryY=1;entryDx=0;entryDy=0;" edge="1" parent="1" source="XW4laHf70i-aS3ndhYvc-7" target="XW4laHf70i-aS3ndhYvc-17">
          <mxGeometry width="50" height="50" relative="1" as="geometry">
            <mxPoint x="445" y="424" as="sourcePoint" />
            <mxPoint x="534" y="390" as="targetPoint" />
          </mxGeometry>
        </mxCell>
        <mxCell id="XW4laHf70i-aS3ndhYvc-42" value="" style="endArrow=classic;html=1;rounded=0;exitX=1;exitY=0.5;exitDx=0;exitDy=0;entryX=0;entryY=1;entryDx=0;entryDy=0;" edge="1" parent="1" source="XW4laHf70i-aS3ndhYvc-7" target="XW4laHf70i-aS3ndhYvc-16">
          <mxGeometry width="50" height="50" relative="1" as="geometry">
            <mxPoint x="457.5" y="384" as="sourcePoint" />
            <mxPoint x="546.5" y="350" as="targetPoint" />
          </mxGeometry>
        </mxCell>
        <mxCell id="XW4laHf70i-aS3ndhYvc-43" value="" style="endArrow=classic;html=1;rounded=0;exitX=1;exitY=0.5;exitDx=0;exitDy=0;" edge="1" parent="1" source="XW4laHf70i-aS3ndhYvc-17" target="XW4laHf70i-aS3ndhYvc-18">
          <mxGeometry width="50" height="50" relative="1" as="geometry">
            <mxPoint x="589.5" y="444" as="sourcePoint" />
            <mxPoint x="768.5" y="430" as="targetPoint" />
          </mxGeometry>
        </mxCell>
        <mxCell id="XW4laHf70i-aS3ndhYvc-45" value="" style="endArrow=classic;html=1;rounded=0;exitX=0.5;exitY=1;exitDx=0;exitDy=0;entryX=1;entryY=0;entryDx=0;entryDy=0;" edge="1" parent="1" source="XW4laHf70i-aS3ndhYvc-16" target="XW4laHf70i-aS3ndhYvc-17">
          <mxGeometry width="50" height="50" relative="1" as="geometry">
            <mxPoint x="644" y="340" as="sourcePoint" />
            <mxPoint x="714" y="340" as="targetPoint" />
          </mxGeometry>
        </mxCell>
        <mxCell id="XW4laHf70i-aS3ndhYvc-46" value="" style="endArrow=classic;html=1;rounded=0;exitX=1;exitY=1;exitDx=0;exitDy=0;entryX=0;entryY=0.5;entryDx=0;entryDy=0;" edge="1" parent="1" source="XW4laHf70i-aS3ndhYvc-5" target="XW4laHf70i-aS3ndhYvc-17">
          <mxGeometry width="50" height="50" relative="1" as="geometry">
            <mxPoint x="649" y="320" as="sourcePoint" />
            <mxPoint x="630" y="374" as="targetPoint" />
          </mxGeometry>
        </mxCell>
        <mxCell id="XW4laHf70i-aS3ndhYvc-48" value="" style="endArrow=none;dashed=1;html=1;rounded=0;entryX=0.5;entryY=1;entryDx=0;entryDy=0;exitX=0.5;exitY=0;exitDx=0;exitDy=0;" edge="1" parent="1" source="XW4laHf70i-aS3ndhYvc-15" target="XW4laHf70i-aS3ndhYvc-6">
          <mxGeometry width="50" height="50" relative="1" as="geometry">
            <mxPoint x="344" y="490" as="sourcePoint" />
            <mxPoint x="394" y="440" as="targetPoint" />
          </mxGeometry>
        </mxCell>
        <mxCell id="XW4laHf70i-aS3ndhYvc-49" value="" style="endArrow=none;dashed=1;html=1;rounded=0;entryX=0.5;entryY=1;entryDx=0;entryDy=0;exitX=0.5;exitY=0;exitDx=0;exitDy=0;" edge="1" parent="1" source="XW4laHf70i-aS3ndhYvc-15" target="XW4laHf70i-aS3ndhYvc-7">
          <mxGeometry width="50" height="50" relative="1" as="geometry">
            <mxPoint x="434" y="674" as="sourcePoint" />
            <mxPoint x="553" y="400" as="targetPoint" />
          </mxGeometry>
        </mxCell>
        <mxCell id="XW4laHf70i-aS3ndhYvc-50" value="" style="endArrow=none;dashed=1;html=1;rounded=0;entryX=0.5;entryY=1;entryDx=0;entryDy=0;exitX=1;exitY=0;exitDx=0;exitDy=0;" edge="1" parent="1" source="XW4laHf70i-aS3ndhYvc-10" target="XW4laHf70i-aS3ndhYvc-8">
          <mxGeometry width="50" height="50" relative="1" as="geometry">
            <mxPoint x="449.5" y="654" as="sourcePoint" />
            <mxPoint x="568.5" y="380" as="targetPoint" />
          </mxGeometry>
        </mxCell>
        <mxCell id="XW4laHf70i-aS3ndhYvc-51" value="" style="endArrow=none;dashed=1;html=1;rounded=0;entryX=1;entryY=1;entryDx=0;entryDy=0;exitX=0.5;exitY=0;exitDx=0;exitDy=0;" edge="1" parent="1" source="XW4laHf70i-aS3ndhYvc-10" target="XW4laHf70i-aS3ndhYvc-1">
          <mxGeometry width="50" height="50" relative="1" as="geometry">
            <mxPoint x="144" y="644" as="sourcePoint" />
            <mxPoint x="233" y="370" as="targetPoint" />
          </mxGeometry>
        </mxCell>
        <mxCell id="XW4laHf70i-aS3ndhYvc-52" value="" style="endArrow=none;dashed=1;html=1;rounded=0;entryX=1;entryY=1;entryDx=0;entryDy=0;exitX=0.5;exitY=0;exitDx=0;exitDy=0;" edge="1" parent="1" source="XW4laHf70i-aS3ndhYvc-15" target="XW4laHf70i-aS3ndhYvc-1">
          <mxGeometry width="50" height="50" relative="1" as="geometry">
            <mxPoint x="329" y="550" as="sourcePoint" />
            <mxPoint x="140" y="256" as="targetPoint" />
          </mxGeometry>
        </mxCell>
        <mxCell id="XW4laHf70i-aS3ndhYvc-54" value="" style="endArrow=none;dashed=1;html=1;rounded=0;entryX=0.5;entryY=1;entryDx=0;entryDy=0;exitX=0.5;exitY=0;exitDx=0;exitDy=0;" edge="1" parent="1" source="XW4laHf70i-aS3ndhYvc-13" target="XW4laHf70i-aS3ndhYvc-4">
          <mxGeometry width="50" height="50" relative="1" as="geometry">
            <mxPoint x="294" y="702" as="sourcePoint" />
            <mxPoint x="105" y="408" as="targetPoint" />
          </mxGeometry>
        </mxCell>
        <mxCell id="XW4laHf70i-aS3ndhYvc-56" value="" style="endArrow=none;dashed=1;html=1;rounded=0;entryX=0.5;entryY=1;entryDx=0;entryDy=0;exitX=0.5;exitY=0;exitDx=0;exitDy=0;" edge="1" parent="1" source="XW4laHf70i-aS3ndhYvc-14" target="XW4laHf70i-aS3ndhYvc-4">
          <mxGeometry width="50" height="50" relative="1" as="geometry">
            <mxPoint x="240" y="614" as="sourcePoint" />
            <mxPoint x="369" y="320" as="targetPoint" />
          </mxGeometry>
        </mxCell>
        <mxCell id="XW4laHf70i-aS3ndhYvc-57" value="" style="endArrow=none;dashed=1;html=1;rounded=0;entryX=1;entryY=1;entryDx=0;entryDy=0;exitX=0;exitY=0;exitDx=0;exitDy=0;" edge="1" parent="1" source="XW4laHf70i-aS3ndhYvc-13" target="XW4laHf70i-aS3ndhYvc-1">
          <mxGeometry width="50" height="50" relative="1" as="geometry">
            <mxPoint x="264" y="674" as="sourcePoint" />
            <mxPoint x="75" y="380" as="targetPoint" />
          </mxGeometry>
        </mxCell>
        <mxCell id="XW4laHf70i-aS3ndhYvc-58" value="" style="endArrow=none;dashed=1;html=1;rounded=0;entryX=0.5;entryY=1;entryDx=0;entryDy=0;exitX=0.5;exitY=0;exitDx=0;exitDy=0;" edge="1" parent="1" source="XW4laHf70i-aS3ndhYvc-14" target="XW4laHf70i-aS3ndhYvc-8">
          <mxGeometry width="50" height="50" relative="1" as="geometry">
            <mxPoint x="250" y="624" as="sourcePoint" />
            <mxPoint x="369" y="320" as="targetPoint" />
          </mxGeometry>
        </mxCell>
        <mxCell id="XW4laHf70i-aS3ndhYvc-61" value="" style="endArrow=none;dashed=1;html=1;rounded=0;entryX=0.5;entryY=1;entryDx=0;entryDy=0;exitX=0.5;exitY=0;exitDx=0;exitDy=0;" edge="1" parent="1" source="XW4laHf70i-aS3ndhYvc-14" target="XW4laHf70i-aS3ndhYvc-12">
          <mxGeometry width="50" height="50" relative="1" as="geometry">
            <mxPoint x="250" y="624" as="sourcePoint" />
            <mxPoint x="369" y="320" as="targetPoint" />
          </mxGeometry>
        </mxCell>
        <mxCell id="XW4laHf70i-aS3ndhYvc-62" value="" style="endArrow=none;dashed=1;html=1;rounded=0;entryX=1;entryY=1;entryDx=0;entryDy=0;exitX=0.5;exitY=0;exitDx=0;exitDy=0;" edge="1" parent="1" source="XW4laHf70i-aS3ndhYvc-14" target="XW4laHf70i-aS3ndhYvc-1">
          <mxGeometry width="50" height="50" relative="1" as="geometry">
            <mxPoint x="409" y="550" as="sourcePoint" />
            <mxPoint x="140" y="256" as="targetPoint" />
          </mxGeometry>
        </mxCell>
        <mxCell id="XW4laHf70i-aS3ndhYvc-63" value="" style="endArrow=none;dashed=1;html=1;rounded=0;entryX=0.5;entryY=1;entryDx=0;entryDy=0;exitX=0.5;exitY=0;exitDx=0;exitDy=0;" edge="1" parent="1" source="XW4laHf70i-aS3ndhYvc-10" target="XW4laHf70i-aS3ndhYvc-3">
          <mxGeometry width="50" height="50" relative="1" as="geometry">
            <mxPoint x="239" y="620" as="sourcePoint" />
            <mxPoint x="140" y="256" as="targetPoint" />
          </mxGeometry>
        </mxCell>
        <mxCell id="XW4laHf70i-aS3ndhYvc-64" value="" style="endArrow=none;dashed=1;html=1;rounded=0;exitX=0.5;exitY=0;exitDx=0;exitDy=0;entryX=0.5;entryY=1;entryDx=0;entryDy=0;" edge="1" parent="1" source="XW4laHf70i-aS3ndhYvc-14" target="XW4laHf70i-aS3ndhYvc-3">
          <mxGeometry width="50" height="50" relative="1" as="geometry">
            <mxPoint x="204" y="570" as="sourcePoint" />
            <mxPoint x="274" y="230" as="targetPoint" />
          </mxGeometry>
        </mxCell>
        <mxCell id="XW4laHf70i-aS3ndhYvc-65" value="" style="endArrow=none;dashed=1;html=1;rounded=0;entryX=0.5;entryY=1;entryDx=0;entryDy=0;exitX=0.5;exitY=0;exitDx=0;exitDy=0;" edge="1" parent="1" source="XW4laHf70i-aS3ndhYvc-14" target="XW4laHf70i-aS3ndhYvc-11">
          <mxGeometry width="50" height="50" relative="1" as="geometry">
            <mxPoint x="329" y="550" as="sourcePoint" />
            <mxPoint x="289" y="230" as="targetPoint" />
          </mxGeometry>
        </mxCell>
        <mxCell id="XW4laHf70i-aS3ndhYvc-66" value="" style="endArrow=none;dashed=1;html=1;rounded=0;entryX=0.5;entryY=1;entryDx=0;entryDy=0;exitX=0.5;exitY=0;exitDx=0;exitDy=0;" edge="1" parent="1" source="XW4laHf70i-aS3ndhYvc-10" target="XW4laHf70i-aS3ndhYvc-11">
          <mxGeometry width="50" height="50" relative="1" as="geometry">
            <mxPoint x="329" y="550" as="sourcePoint" />
            <mxPoint x="289" y="230" as="targetPoint" />
          </mxGeometry>
        </mxCell>
        <mxCell id="XW4laHf70i-aS3ndhYvc-68" value="" style="endArrow=none;dashed=1;html=1;rounded=0;entryX=0.5;entryY=1;entryDx=0;entryDy=0;exitX=0.5;exitY=0;exitDx=0;exitDy=0;" edge="1" parent="1" source="XW4laHf70i-aS3ndhYvc-14" target="XW4laHf70i-aS3ndhYvc-9">
          <mxGeometry width="50" height="50" relative="1" as="geometry">
            <mxPoint x="420" y="554" as="sourcePoint" />
            <mxPoint x="539" y="280" as="targetPoint" />
          </mxGeometry>
        </mxCell>
        <mxCell id="XW4laHf70i-aS3ndhYvc-71" value="" style="endArrow=none;dashed=1;html=1;rounded=0;entryX=0.5;entryY=1;entryDx=0;entryDy=0;exitX=0.5;exitY=0;exitDx=0;exitDy=0;" edge="1" parent="1" source="XW4laHf70i-aS3ndhYvc-10" target="XW4laHf70i-aS3ndhYvc-9">
          <mxGeometry width="50" height="50" relative="1" as="geometry">
            <mxPoint x="364" y="620" as="sourcePoint" />
            <mxPoint x="514" y="150" as="targetPoint" />
          </mxGeometry>
        </mxCell>
      </root>
    </mxGraphModel>
  </diagram>
</mxfile>
